<mxfile host="app.diagrams.net" agent="Mozilla/5.0 (Macintosh; Intel Mac OS X 10_15_7) AppleWebKit/537.36 (KHTML, like Gecko) Chrome/131.0.0.0 Safari/537.36" version="25.0.1">
  <diagram name="Page-1" id="PvgVLcvzbbs0Ga6zSh0f">
    <mxGraphModel dx="1434" dy="819" grid="1" gridSize="10" guides="1" tooltips="1" connect="1" arrows="1" fold="1" page="1" pageScale="1" pageWidth="850" pageHeight="1100" background="none" math="0" shadow="0">
      <root>
        <mxCell id="0" />
        <mxCell id="1" parent="0" />
        <mxCell id="B56T8SULO6MOT_sVwe2b-1" value="" style="shape=datastore;whiteSpace=wrap;html=1;fillColor=#dae8fc;strokeColor=#6c8ebf;" vertex="1" parent="1">
          <mxGeometry x="100" y="138" width="60" height="60" as="geometry" />
        </mxCell>
        <mxCell id="B56T8SULO6MOT_sVwe2b-5" value="Data Source" style="text;html=1;align=center;verticalAlign=middle;resizable=0;points=[];autosize=1;strokeColor=none;fillColor=none;" vertex="1" parent="1">
          <mxGeometry x="85" y="108" width="90" height="30" as="geometry" />
        </mxCell>
        <mxCell id="B56T8SULO6MOT_sVwe2b-6" value="" style="endArrow=classic;html=1;rounded=0;" edge="1" parent="1">
          <mxGeometry width="50" height="50" relative="1" as="geometry">
            <mxPoint x="130" y="200" as="sourcePoint" />
            <mxPoint x="130" y="280" as="targetPoint" />
          </mxGeometry>
        </mxCell>
        <mxCell id="B56T8SULO6MOT_sVwe2b-11" value="" style="rounded=1;whiteSpace=wrap;html=1;fillColor=#d5e8d4;strokeColor=#82b366;gradientColor=none;" vertex="1" parent="1">
          <mxGeometry x="50" y="280" width="170" height="90" as="geometry" />
        </mxCell>
        <mxCell id="B56T8SULO6MOT_sVwe2b-12" value="" style="shape=image;html=1;verticalAlign=top;verticalLabelPosition=bottom;labelBackgroundColor=#ffffff;imageAspect=0;aspect=fixed;image=https://cdn2.iconfinder.com/data/icons/bitsies/128/BarChart-128.png" vertex="1" parent="1">
          <mxGeometry x="70" y="286.5" width="77" height="77" as="geometry" />
        </mxCell>
        <mxCell id="B56T8SULO6MOT_sVwe2b-13" value="" style="shape=image;html=1;verticalAlign=top;verticalLabelPosition=bottom;labelBackgroundColor=#ffffff;imageAspect=0;aspect=fixed;image=https://cdn4.iconfinder.com/data/icons/success-filloutline/64/chart-analysis-analytics-data_analytics-pie-128.png" vertex="1" parent="1">
          <mxGeometry x="167" y="286.5" width="35" height="35" as="geometry" />
        </mxCell>
        <mxCell id="B56T8SULO6MOT_sVwe2b-14" value="" style="shape=image;html=1;verticalAlign=top;verticalLabelPosition=bottom;labelBackgroundColor=#ffffff;imageAspect=0;aspect=fixed;image=https://cdn0.iconfinder.com/data/icons/web-development-and-studio/512/30_Graph_Analysis_analytic_analytics_chart_data-128.png" vertex="1" parent="1">
          <mxGeometry x="165" y="329.5" width="39" height="39" as="geometry" />
        </mxCell>
        <mxCell id="B56T8SULO6MOT_sVwe2b-16" value="Data Preprocessing &amp;amp; Analysis" style="text;html=1;align=center;verticalAlign=middle;whiteSpace=wrap;rounded=0;" vertex="1" parent="1">
          <mxGeometry x="105" y="380" width="65" height="30" as="geometry" />
        </mxCell>
        <mxCell id="B56T8SULO6MOT_sVwe2b-19" value="" style="edgeStyle=elbowEdgeStyle;elbow=horizontal;endArrow=classic;html=1;curved=0;rounded=0;endSize=8;startSize=8;" edge="1" parent="1">
          <mxGeometry width="50" height="50" relative="1" as="geometry">
            <mxPoint x="220" y="321.5" as="sourcePoint" />
            <mxPoint x="330" y="270" as="targetPoint" />
            <Array as="points">
              <mxPoint x="260" y="290" />
            </Array>
          </mxGeometry>
        </mxCell>
        <mxCell id="B56T8SULO6MOT_sVwe2b-21" value="" style="sketch=0;outlineConnect=0;fillColor=#e1d5e7;strokeColor=#9673a6;dashed=0;verticalLabelPosition=bottom;verticalAlign=top;align=center;html=1;fontSize=12;fontStyle=0;aspect=fixed;pointerEvents=1;shape=mxgraph.aws4.elastic_file_system_intelligent_tiering;" vertex="1" parent="1">
          <mxGeometry x="340" y="230" width="78" height="77" as="geometry" />
        </mxCell>
        <mxCell id="B56T8SULO6MOT_sVwe2b-22" value="Model Training" style="text;html=1;align=center;verticalAlign=middle;whiteSpace=wrap;rounded=0;" vertex="1" parent="1">
          <mxGeometry x="349" y="310" width="60" height="30" as="geometry" />
        </mxCell>
        <mxCell id="B56T8SULO6MOT_sVwe2b-23" value="" style="sketch=0;outlineConnect=0;fontColor=#232F3E;gradientColor=none;fillColor=#01A88D;strokeColor=none;dashed=0;verticalLabelPosition=bottom;verticalAlign=top;align=center;html=1;fontSize=12;fontStyle=0;aspect=fixed;shape=mxgraph.aws4.application_discovery_service_migration_evaluator_collector;" vertex="1" parent="1">
          <mxGeometry x="340" y="90" width="78" height="78" as="geometry" />
        </mxCell>
        <mxCell id="B56T8SULO6MOT_sVwe2b-26" value="" style="curved=1;endArrow=classic;html=1;rounded=0;" edge="1" parent="1">
          <mxGeometry width="50" height="50" relative="1" as="geometry">
            <mxPoint x="330" y="120" as="sourcePoint" />
            <mxPoint x="320" y="260" as="targetPoint" />
            <Array as="points">
              <mxPoint x="290" y="130" />
              <mxPoint x="270" y="210" />
            </Array>
          </mxGeometry>
        </mxCell>
        <mxCell id="B56T8SULO6MOT_sVwe2b-27" value="&lt;div&gt;Hyperparameter Tuning&lt;/div&gt;" style="text;html=1;align=center;verticalAlign=middle;whiteSpace=wrap;rounded=0;rotation=-90;" vertex="1" parent="1">
          <mxGeometry x="230" y="180" width="60" height="30" as="geometry" />
        </mxCell>
        <mxCell id="B56T8SULO6MOT_sVwe2b-28" value="" style="endArrow=classic;html=1;rounded=0;" edge="1" parent="1" source="B56T8SULO6MOT_sVwe2b-21" target="B56T8SULO6MOT_sVwe2b-23">
          <mxGeometry width="50" height="50" relative="1" as="geometry">
            <mxPoint x="500" y="450" as="sourcePoint" />
            <mxPoint x="550" y="400" as="targetPoint" />
          </mxGeometry>
        </mxCell>
        <mxCell id="B56T8SULO6MOT_sVwe2b-29" value="Model Evaluation" style="text;html=1;align=center;verticalAlign=middle;whiteSpace=wrap;rounded=0;" vertex="1" parent="1">
          <mxGeometry x="340" y="60" width="60" height="30" as="geometry" />
        </mxCell>
        <mxCell id="B56T8SULO6MOT_sVwe2b-31" value="" style="whiteSpace=wrap;html=1;aspect=fixed;fillColor=#dae8fc;strokeColor=#6c8ebf;" vertex="1" parent="1">
          <mxGeometry x="510" y="50" width="140" height="140" as="geometry" />
        </mxCell>
        <mxCell id="B56T8SULO6MOT_sVwe2b-32" value="" style="image;sketch=0;aspect=fixed;html=1;points=[];align=center;fontSize=12;image=img/lib/mscae/Docker.svg;" vertex="1" parent="1">
          <mxGeometry x="610" y="50" width="40" height="32.8" as="geometry" />
        </mxCell>
        <mxCell id="B56T8SULO6MOT_sVwe2b-33" value="" style="rounded=0;whiteSpace=wrap;html=1;strokeColor=#A9C4EB;" vertex="1" parent="1">
          <mxGeometry x="520" y="93" width="120" height="67" as="geometry" />
        </mxCell>
        <mxCell id="B56T8SULO6MOT_sVwe2b-35" value="" style="ellipse;shape=cloud;whiteSpace=wrap;html=1;" vertex="1" parent="1">
          <mxGeometry x="510" y="280" width="140" height="100" as="geometry" />
        </mxCell>
        <mxCell id="B56T8SULO6MOT_sVwe2b-36" value="" style="outlineConnect=0;dashed=0;verticalLabelPosition=bottom;verticalAlign=top;align=center;html=1;shape=mxgraph.aws3.ec2;fillColor=#F58534;gradientColor=none;" vertex="1" parent="1">
          <mxGeometry x="560.75" y="307" width="38.5" height="50" as="geometry" />
        </mxCell>
        <mxCell id="B56T8SULO6MOT_sVwe2b-37" value="" style="endArrow=classic;html=1;rounded=0;entryX=0;entryY=0.5;entryDx=0;entryDy=0;" edge="1" parent="1" target="B56T8SULO6MOT_sVwe2b-31">
          <mxGeometry width="50" height="50" relative="1" as="geometry">
            <mxPoint x="420" y="120" as="sourcePoint" />
            <mxPoint x="550" y="270" as="targetPoint" />
          </mxGeometry>
        </mxCell>
        <mxCell id="B56T8SULO6MOT_sVwe2b-38" value="" style="endArrow=classic;html=1;rounded=0;" edge="1" parent="1">
          <mxGeometry width="50" height="50" relative="1" as="geometry">
            <mxPoint x="599.25" y="190" as="sourcePoint" />
            <mxPoint x="599.25" y="280" as="targetPoint" />
          </mxGeometry>
        </mxCell>
        <mxCell id="B56T8SULO6MOT_sVwe2b-41" value="" style="endArrow=classic;html=1;rounded=0;entryX=0.443;entryY=1.021;entryDx=0;entryDy=0;entryPerimeter=0;" edge="1" parent="1" target="B56T8SULO6MOT_sVwe2b-31">
          <mxGeometry width="50" height="50" relative="1" as="geometry">
            <mxPoint x="572" y="280" as="sourcePoint" />
            <mxPoint x="570" y="280" as="targetPoint" />
          </mxGeometry>
        </mxCell>
        <mxCell id="B56T8SULO6MOT_sVwe2b-42" value="" style="html=1;verticalLabelPosition=bottom;align=center;labelBackgroundColor=#ffffff;verticalAlign=top;strokeWidth=2;strokeColor=#0080F0;shadow=0;dashed=0;shape=mxgraph.ios7.icons.user;" vertex="1" parent="1">
          <mxGeometry x="740" y="298.5" width="80" height="81.5" as="geometry" />
        </mxCell>
        <mxCell id="B56T8SULO6MOT_sVwe2b-43" value="Containerisation" style="text;html=1;align=center;verticalAlign=middle;whiteSpace=wrap;rounded=0;" vertex="1" parent="1">
          <mxGeometry x="550" y="20" width="60" height="30" as="geometry" />
        </mxCell>
        <mxCell id="B56T8SULO6MOT_sVwe2b-44" value="" style="endArrow=classic;html=1;rounded=0;" edge="1" parent="1" source="B56T8SULO6MOT_sVwe2b-35">
          <mxGeometry width="50" height="50" relative="1" as="geometry">
            <mxPoint x="660" y="360" as="sourcePoint" />
            <mxPoint x="720" y="330" as="targetPoint" />
          </mxGeometry>
        </mxCell>
        <mxCell id="B56T8SULO6MOT_sVwe2b-46" value="" style="endArrow=classic;html=1;rounded=0;" edge="1" parent="1">
          <mxGeometry width="50" height="50" relative="1" as="geometry">
            <mxPoint x="720" y="348.5" as="sourcePoint" />
            <mxPoint x="650" y="348.5" as="targetPoint" />
          </mxGeometry>
        </mxCell>
        <mxCell id="B56T8SULO6MOT_sVwe2b-47" value="Cloud Deployment (AWS EC2)&lt;div&gt;&lt;br&gt;&lt;/div&gt;" style="text;html=1;align=center;verticalAlign=middle;whiteSpace=wrap;rounded=0;" vertex="1" parent="1">
          <mxGeometry x="550" y="400" width="60" height="30" as="geometry" />
        </mxCell>
        <mxCell id="B56T8SULO6MOT_sVwe2b-49" value="" style="shape=image;verticalLabelPosition=bottom;labelBackgroundColor=default;verticalAlign=top;aspect=fixed;imageAspect=0;image=https://encrypted-tbn0.gstatic.com/images?q=tbn:ANd9GcTmD38KsMgEwahtWc_Nfs5ZVktP9dBc36MUZA&amp;s;" vertex="1" parent="1">
          <mxGeometry x="530" y="109" width="40" height="40" as="geometry" />
        </mxCell>
        <mxCell id="B56T8SULO6MOT_sVwe2b-51" value="" style="shape=image;verticalLabelPosition=bottom;labelBackgroundColor=default;verticalAlign=top;aspect=fixed;imageAspect=0;image=https://encrypted-tbn0.gstatic.com/images?q=tbn:ANd9GcT6Vwq2o3rdEjNxdTlclPJ9ya_xhPhrBZ_5fA&amp;s;" vertex="1" parent="1">
          <mxGeometry x="580" y="112.34" width="42" height="33.33" as="geometry" />
        </mxCell>
        <mxCell id="B56T8SULO6MOT_sVwe2b-53" value="Flask + Bootstrap" style="text;html=1;align=center;verticalAlign=middle;whiteSpace=wrap;rounded=0;" vertex="1" parent="1">
          <mxGeometry x="495" y="90" width="170" height="30" as="geometry" />
        </mxCell>
      </root>
    </mxGraphModel>
  </diagram>
</mxfile>
